<svg id="Capa_1" enable-background="new 0 0 512 512" height="512" viewBox="0 0 512 512" width="512" xmlns="http://www.w3.org/2000/svg"><g><g><g><path d="m461.569 71.022c-56.683-56.683-148.218-57.198-205.581-1.62-57.363-55.578-148.898-55.063-205.581 1.62-57.241 57.241-57.241 150.047 0 207.287l205.581 205.581 205.581-205.581c57.241-57.241 57.241-150.047 0-207.287z" fill="#dd636e"/></g><g><path d="m461.569 71.022c-27.3-27.3-62.685-41.531-98.441-42.782 4.015 17.771 6.204 36.233 6.204 55.218 0 137.87-111.765 249.635-249.635 249.635-5.039 0-10.031-.194-14.996-.489l151.287 151.286 205.581-205.581c57.241-57.241 57.241-150.047 0-207.287z" fill="#da4a54"/></g></g><g><g><path d="m255.988 240.847c-60.139 0-80.504 38.91-87.396 65.821-3.261 12.731 6.462 25.097 19.604 25.097h67.792 67.792c13.142 0 22.865-12.366 19.604-25.097-6.892-26.911-27.257-65.821-87.396-65.821z" fill="#f1f4f6"/></g><g><path d="m343.384 306.668c-4.593-17.931-15.172-41.186-39.508-54.712-33.733 36.851-78.376 63.543-128.819 74.965 3.504 2.996 8.064 4.845 13.138 4.845h67.792 67.792c13.143 0 22.866-12.367 19.605-25.098z" fill="#d0e2e7"/></g><g><ellipse cx="303.314" cy="160.87" fill="#f1f4f6" rx="48.24" ry="30.306" transform="matrix(.192 -.981 .981 .192 87.114 427.583)"/></g><g><ellipse cx="381.755" cy="221.713" fill="#d0e2e7" rx="40.408" ry="30.306" transform="matrix(.581 -.814 .814 .581 -20.402 403.821)"/></g><g><ellipse cx="208.662" cy="160.87" fill="#f1f4f6" rx="30.306" ry="48.24" transform="matrix(.981 -.192 .192 .981 -27.043 43.132)"/></g><g><ellipse cx="130.221" cy="221.713" fill="#f1f4f6" rx="30.306" ry="40.408" transform="matrix(.814 -.581 .581 .814 -104.527 116.795)"/></g></g><g><path d="m333.922 395.348-77.934 77.935-200.277-200.278c-43.479-43.477-53.367-109.156-24.605-163.433 1.94-3.66.545-8.2-3.115-10.139-3.66-1.941-8.2-.544-10.139 3.115-15.105 28.504-20.903 61.878-16.326 93.977 4.733 33.198 19.802 63.313 43.577 87.088l205.581 205.582c1.407 1.406 3.315 2.196 5.304 2.196s3.897-.79 5.304-2.196l83.238-83.238c2.929-2.93 2.929-7.678 0-10.608-2.931-2.929-7.679-2.928-10.608-.001z"/><path d="m466.873 65.718c-28.794-28.794-67.073-44.812-107.785-45.105-.38-.002-.756-.004-1.135-.004-37.864 0-73.767 13.626-101.965 38.573-28.199-24.949-64.099-38.573-101.965-38.573-.377 0-.758.002-1.135.004-40.713.293-78.992 16.311-107.785 45.105-2.14 2.14-4.235 4.361-6.227 6.599-2.754 3.095-2.478 7.836.616 10.589 3.096 2.755 7.836 2.478 10.589-.616 1.8-2.023 3.694-4.029 5.629-5.964 53.358-53.359 140.862-54.047 195.058-1.537 2.908 2.818 7.53 2.818 10.438 0 54.199-52.51 141.701-51.822 195.058 1.537 26.268 26.267 40.734 61.192 40.734 98.34s-14.466 72.073-40.734 98.34l-97.498 97.499c-2.929 2.93-2.929 7.678 0 10.608 1.465 1.464 3.385 2.196 5.304 2.196 1.92 0 3.839-.732 5.304-2.196l97.498-97.499c29.101-29.102 45.128-67.794 45.128-108.949 0-41.154-16.027-79.846-45.127-108.947z"/><path d="m255.988 233.347c-66.439 0-87.826 44.773-94.663 71.461-2.123 8.291-.322 16.935 4.941 23.716 5.299 6.827 13.292 10.742 21.93 10.742h15.245c4.143 0 7.5-3.358 7.5-7.5 0-4.143-3.358-7.5-7.5-7.5h-15.245c-3.969 0-7.643-1.8-10.08-4.94-2.4-3.092-3.224-7.028-2.259-10.795 7.032-27.455 26.642-60.183 80.131-60.183s73.099 32.727 80.131 60.182c.965 3.769.142 7.704-2.259 10.796-2.437 3.14-6.111 4.94-10.08 4.94h-85.222c-4.143 0-7.5 3.358-7.5 7.5 0 4.143 3.358 7.5 7.5 7.5h85.222c8.638 0 16.631-3.915 21.93-10.742 5.263-6.781 7.064-15.425 4.941-23.717-6.837-26.688-28.224-71.46-94.663-71.46z"/><path d="m297.858 216.082c8.861 0 17.713-4.312 25.391-12.48 8.324-8.856 14.42-21.45 17.166-35.462s1.855-27.975-2.511-39.317c-4.825-12.537-13.302-20.582-23.87-22.653-20.801-4.074-41.81 16.757-47.822 47.429-6.01 30.673 5.578 57.894 26.382 61.972 1.749.342 3.506.511 5.264.511zm-16.925-59.598c3.91-19.954 16.551-35.812 27.936-35.812.766 0 1.527.072 2.279.22 7.179 1.406 11.073 8.949 12.755 13.32 3.316 8.615 3.968 19.931 1.789 31.044-2.178 11.114-7.053 21.347-13.376 28.073-3.208 3.412-9.661 8.931-16.839 7.521-11.92-2.337-18.718-23.069-14.544-44.366z"/><path d="m384.888 264.567c10.627-3.38 20.447-10.803 27.65-20.904 15.337-21.509 14.006-48.854-2.967-60.957-16.975-12.104-43.26-4.449-58.598 17.057-7.202 10.101-11.021 21.804-10.753 32.954.288 11.956 5.161 21.9 13.721 28.004 5.423 3.866 11.82 5.832 18.679 5.832 3.968 0 8.091-.658 12.268-1.986zm-29.672-32.212c-.19-7.925 2.64-16.408 7.97-23.883 7.423-10.41 18.387-16.546 27.709-16.546 3.685 0 7.115.96 9.965 2.992 10.065 7.177 9.819 25.51-.537 40.034-5.33 7.476-12.427 12.916-19.982 15.318-6.785 2.156-13.07 1.531-17.691-1.764-4.622-3.295-7.262-9.03-7.434-16.151z"/><path d="m214.118 216.082c1.757 0 3.516-.169 5.264-.512 20.804-4.077 32.392-31.298 26.382-61.972-6.011-30.671-27.01-51.501-47.822-47.429-10.568 2.071-19.045 10.117-23.87 22.653-4.365 11.342-5.257 25.305-2.511 39.317 2.746 14.011 8.842 26.606 17.166 35.462 7.678 8.17 16.53 12.482 25.391 12.481zm-26.046-81.871c1.683-4.371 5.576-11.914 12.755-13.32.752-.147 1.513-.22 2.279-.22 11.384 0 24.026 15.859 27.936 35.812 4.174 21.298-2.623 42.029-14.546 44.365-7.177 1.41-13.632-4.109-16.839-7.521-6.323-6.726-11.198-16.959-13.376-28.073-2.177-11.112-1.525-22.428 1.791-31.043z"/><path d="m102.405 182.706c-16.972 12.103-18.304 39.448-2.967 60.957 7.202 10.101 17.022 17.524 27.65 20.904 4.178 1.328 8.299 1.986 12.268 1.986 6.858 0 13.256-1.966 18.679-5.832 8.56-6.104 13.433-16.049 13.721-28.004.268-11.15-3.551-22.853-10.753-32.954-15.338-21.507-41.622-29.162-58.598-17.057zm54.355 49.649c-.172 7.12-2.812 12.856-7.434 16.152s-10.906 3.922-17.691 1.764c-7.555-2.402-14.652-7.842-19.982-15.318-10.356-14.524-10.602-32.857-.537-40.034 2.852-2.033 6.28-2.992 9.965-2.992 9.323 0 20.287 6.137 27.709 16.546 5.33 7.474 8.16 15.957 7.97 23.882z"/></g></g></svg>