<svg xmlns="http://www.w3.org/2000/svg" xmlns:xlink="http://www.w3.org/1999/xlink" viewBox="0 0 26.25 35.53"><defs><style>.cls-1{fill:url(#linear-gradient);}.cls-2{fill:url(#linear-gradient-2);}</style><linearGradient id="linear-gradient" y1="17.76" x2="26.25" y2="17.76" gradientUnits="userSpaceOnUse"><stop offset="0" stop-color="#ffffff"/><stop offset="0.2" stop-color="#ffffff"/><stop offset="0.53" stop-color="#ffffff"/><stop offset="0.96" stop-color="#ffffff"/><stop offset="0.99" stop-color="#ffffff"/></linearGradient><linearGradient id="linear-gradient-2" x1="6.29" y1="12.97" x2="19.96" y2="12.97" xlink:href="#linear-gradient"/></defs><title>icon-paw</title><g id="Layer_2" data-name="Layer 2"><g id="Layer_1-2" data-name="Layer 1"><path class="cls-1" d="M13.12,0A13.14,13.14,0,0,0,0,13.12a15.33,15.33,0,0,0,1.11,5.06A21.37,21.37,0,0,0,2.63,21l9,13.64a1.71,1.71,0,0,0,3,0l9-13.64a21.37,21.37,0,0,0,1.52-2.83,15.33,15.33,0,0,0,1.11-5.06A13.14,13.14,0,0,0,13.12,0ZM23.71,17.58a19.35,19.35,0,0,1-1.38,2.58l-9,13.64c-.18.27-.23.27-.41,0l-9-13.64a18.27,18.27,0,0,1-1.38-2.58,13.47,13.47,0,0,1-1-4.46,11.58,11.58,0,0,1,23.16,0A13.78,13.78,0,0,1,23.71,17.58Z"/><path class="cls-2" d="M17.32,16.54a3.92,3.92,0,0,1,.86,1.93c0,1-.75,1.51-1.76,1.51A2.56,2.56,0,0,1,15,19.6a2.22,2.22,0,0,0-1.58-.39,2.3,2.3,0,0,0-1.59.39,2.53,2.53,0,0,1-1.46.38c-1,0-1.76-.49-1.76-1.51a3.92,3.92,0,0,1,.86-1.93,15.45,15.45,0,0,1,2.08-2.72,2.84,2.84,0,0,1,1.71-.63h.32a2.76,2.76,0,0,1,1.71.63A18,18,0,0,1,17.32,16.54ZM10.89,12c1.06,0,1.92-1.34,1.92-3S12,6,10.89,6,9,7.31,9,9,9.83,12,10.89,12Zm-1.84,2.9c.78-.36,1-1.64.4-2.86S7.79,10.08,7,10.45s-1,1.64-.4,2.86S8.27,15.22,9.05,14.86ZM15.36,12c1.06,0,1.92-1.34,1.92-3s-.86-3-1.92-3-1.92,1.34-1.92,3S14.3,12,15.36,12Zm3.88-1.51c-.79-.37-1.88.33-2.44,1.55s-.38,2.5.4,2.86,1.87-.34,2.43-1.55S20,10.81,19.24,10.45Z"/></g></g></svg>