<?xml version="1.0" encoding="iso-8859-1"?>
<!-- Generator: Adobe Illustrator 19.0.0, SVG Export Plug-In . SVG Version: 6.00 Build 0)  -->
<svg version="1.1" id="Capa_1" xmlns="http://www.w3.org/2000/svg" xmlns:xlink="http://www.w3.org/1999/xlink" x="0px" y="0px"
	 viewBox="0 0 512 512" style="enable-background:new 0 0 512 512;" xml:space="preserve">
<polygon style="fill:#56BB98;" points="341.333,90.877 341.333,90.878 170.667,31.578 170.667,421.123 341.333,480.422 
	343.394,479.706 343.394,90.162 "/>
<polygon style="fill:#57AA8F;" points="191.272,38.738 170.667,31.578 170.667,421.123 191.272,428.282 "/>
<path style="fill:#54CCA1;" d="M9.28,87.654C3.724,89.584,0,94.82,0,100.702V464.96c0,7.564,7.46,12.869,14.605,10.386
	l156.062-54.225V31.578L9.28,87.654z"/>
<path style="fill:#56BB98;" d="M20.495,83.757L9.28,87.654C3.724,89.584,0,94.82,0,100.702V464.96
	c0,7.564,7.46,12.869,14.605,10.386l5.89-2.046C20.495,473.3,20.495,83.757,20.495,83.757z"/>
<path style="fill:#BDE2EF;" d="M85.333,301.09c-4.267,0-7.727-3.459-7.727-7.727v-49.896c0-4.268,3.459-7.727,7.727-7.727
	s7.727,3.459,7.727,7.727v49.896C93.06,297.631,89.601,301.09,85.333,301.09z"/>
<path style="fill:#57AA8F;" d="M500.413,35.604l-159.08,55.273v389.544l161.941-56.268c5.224-1.815,8.726-6.739,8.726-12.269V43.845
	C512,37.844,506.082,33.635,500.413,35.604z"/>
<polygon style="fill:#4D967C;" points="361.938,83.718 341.333,90.877 341.333,480.422 361.938,473.263 "/>
<path style="fill:#E1F1FB;" d="M95.699,301.09H74.968c-4.267,0-7.727-3.459-7.727-7.727c0-4.268,3.459-7.727,7.727-7.727h20.731
	c4.267,0,7.727,3.459,7.727,7.727C103.425,297.631,99.966,301.09,95.699,301.09z"/>
<circle style="fill:#FED159;" cx="85.33" cy="216.47" r="33.507"/>
<path style="fill:#FCB75B;" d="M72.432,216.467c0-14.91,9.741-27.539,23.204-31.886c-3.247-1.048-6.707-1.621-10.302-1.621
	c-18.505,0-33.507,15.001-33.507,33.507c0,18.505,15.001,33.507,33.507,33.507c3.595,0,7.056-0.573,10.302-1.621
	C82.173,244.006,72.432,231.377,72.432,216.467z"/>
<path style="fill:#E1F1FB;" d="M121.064,319.283c-3.853-1.834-5.49-6.444-3.656-10.297c1.833-3.851,6.438-5.49,10.291-3.659
	c0.559,0.264,43.925,20.38,78.208,5.931c16.537-6.97,28.58-21.148,35.795-42.138c19.51-56.763,78.509-84.9,143.288-33.087
	c3.333,2.666,3.873,7.529,1.208,10.861c-2.665,3.332-7.528,3.873-10.86,1.207c-57.044-45.627-103.254-19.83-119.021,26.041
	c-8.716,25.36-23.684,42.649-44.486,51.39C181.806,338.146,143.373,329.886,121.064,319.283z"/>
<path style="fill:#ED5661;" d="M437.595,287.318l16.973-16.973c3.018-3.018,3.018-7.91,0-10.928c-3.017-3.016-7.91-3.016-10.927,0
	l-16.974,16.973l-16.974-16.973c-3.017-3.016-7.91-3.016-10.927,0c-3.018,3.018-3.018,7.91,0,10.928l16.973,16.973l-16.973,16.973
	c-3.018,3.018-3.018,7.91,0,10.928c3.018,3.017,7.91,3.016,10.927,0l16.974-16.973l16.974,16.973c3.018,3.017,7.91,3.016,10.927,0
	c3.018-3.018,3.018-7.91,0-10.928L437.595,287.318z"/>
<g>
</g>
<g>
</g>
<g>
</g>
<g>
</g>
<g>
</g>
<g>
</g>
<g>
</g>
<g>
</g>
<g>
</g>
<g>
</g>
<g>
</g>
<g>
</g>
<g>
</g>
<g>
</g>
<g>
</g>
</svg>
