<svg id="Layer_1" data-name="Layer 1" xmlns="http://www.w3.org/2000/svg" xmlns:xlink="http://www.w3.org/1999/xlink" viewBox="0 0 142.8 37.34"><defs><style>.cls-1{fill:url(#linear-gradient);}.cls-2{fill:url(#linear-gradient-2);}.cls-3{fill:url(#linear-gradient-3);}.cls-4{fill:url(#linear-gradient-4);}.cls-5{fill:url(#linear-gradient-5);}.cls-6{fill:url(#linear-gradient-6);}.cls-7{fill:url(#linear-gradient-7);}.cls-8{fill:url(#linear-gradient-8);}.cls-9{fill:url(#linear-gradient-9);}.cls-10{fill:url(#linear-gradient-10);}.cls-11{fill:url(#linear-gradient-11);}</style><linearGradient id="linear-gradient" x1="0.68" y1="19.11" x2="26.93" y2="19.11" gradientUnits="userSpaceOnUse"><stop offset="0" stop-color="#ae56fb"/><stop offset="0.2" stop-color="#a74df5"/><stop offset="0.53" stop-color="#9333e7"/><stop offset="0.96" stop-color="#720ace"/><stop offset="0.99" stop-color="#6f06cc"/></linearGradient><linearGradient id="linear-gradient-2" x1="6.97" y1="14.32" x2="20.65" y2="14.32" xlink:href="#linear-gradient"/><linearGradient id="linear-gradient-3" x1="29.14" y1="16.92" x2="39.48" y2="16.92" xlink:href="#linear-gradient"/><linearGradient id="linear-gradient-4" x1="41.63" y1="13.57" x2="52.83" y2="13.57" xlink:href="#linear-gradient"/><linearGradient id="linear-gradient-5" x1="55.08" y1="16.92" x2="66.63" y2="16.92" xlink:href="#linear-gradient"/><linearGradient id="linear-gradient-6" x1="68.86" y1="19.7" x2="80.07" y2="19.7" xlink:href="#linear-gradient"/><linearGradient id="linear-gradient-7" x1="80.56" y1="14.46" x2="89.54" y2="14.46" xlink:href="#linear-gradient"/><linearGradient id="linear-gradient-8" x1="89.89" y1="14.33" x2="105.86" y2="14.33" xlink:href="#linear-gradient"/><linearGradient id="linear-gradient-9" x1="107.38" y1="19.7" x2="118.59" y2="19.7" xlink:href="#linear-gradient"/><linearGradient id="linear-gradient-10" x1="120.37" y1="16.92" x2="131.17" y2="16.92" xlink:href="#linear-gradient"/><linearGradient id="linear-gradient-11" x1="131.7" y1="14.46" x2="140.68" y2="14.46" xlink:href="#linear-gradient"/></defs><title>Artboard 1</title><path class="cls-1" d="M13.81,1.35A13.14,13.14,0,0,0,.68,14.47,15,15,0,0,0,1.8,19.53a20.21,20.21,0,0,0,1.51,2.83l9,13.64a1.71,1.71,0,0,0,3,0l9-13.64a21.37,21.37,0,0,0,1.52-2.83,15.33,15.33,0,0,0,1.11-5.06A13.14,13.14,0,0,0,13.81,1.35ZM24.4,18.93A19.42,19.42,0,0,1,23,21.51L14,35.15c-.17.27-.23.27-.41,0l-9-13.64a19.35,19.35,0,0,1-1.38-2.58,13.86,13.86,0,0,1-1-4.46,11.58,11.58,0,0,1,23.16,0A13.86,13.86,0,0,1,24.4,18.93Z"/><path class="cls-2" d="M18,17.89a3.93,3.93,0,0,1,.87,1.93c0,1-.76,1.51-1.77,1.51A2.56,2.56,0,0,1,15.63,21a2.22,2.22,0,0,0-1.58-.39,2.27,2.27,0,0,0-1.59.39,2.52,2.52,0,0,1-1.45.38c-1,0-1.77-.49-1.77-1.51a4,4,0,0,1,.87-1.93,15.2,15.2,0,0,1,2.07-2.72,2.86,2.86,0,0,1,1.72-.63h.31a2.76,2.76,0,0,1,1.71.63A18,18,0,0,1,18,17.89Zm-6.43-4.58c1.06,0,1.93-1.34,1.93-3s-.87-3-1.93-3-1.92,1.34-1.92,3S10.51,13.31,11.57,13.31Zm-1.84,2.9c.78-.36,1-1.64.4-2.86S8.48,11.43,7.7,11.8s-1,1.64-.4,2.86S9,16.57,9.73,16.21ZM16,13.31c1.06,0,1.92-1.34,1.92-3s-.86-3-1.92-3-1.92,1.34-1.92,3S15,13.31,16,13.31Zm3.88-1.52c-.78-.36-1.87.34-2.44,1.56s-.38,2.5.4,2.86,1.88-.34,2.44-1.55S20.7,12.16,19.92,11.79Z"/><path class="cls-3" d="M37.12,10a3.41,3.41,0,0,1,1.77,1.72,7.41,7.41,0,0,1,.59,3.22v9.18H36.86l-.24-1.54h-.16a3.34,3.34,0,0,1-1.38,1.36,4.74,4.74,0,0,1-4-.05,3.43,3.43,0,0,1-1.39-1.41,4.48,4.48,0,0,1-.5-2.16,4.07,4.07,0,0,1,1.23-3.17,6.44,6.44,0,0,1,3.89-1.31l2.11-.2v-.85a3.58,3.58,0,0,0-.3-1.61,1.67,1.67,0,0,0-.93-.84,4.61,4.61,0,0,0-1.69-.26,11,11,0,0,0-1.65.14,12.31,12.31,0,0,0-1.72.41V10A12.72,12.72,0,0,1,32,9.62a14.61,14.61,0,0,1,2-.15A7.89,7.89,0,0,1,37.12,10ZM35.35,21.66a2.78,2.78,0,0,0,1-.93V17.6l-1.78.17c-1.54.13-2.3.86-2.3,2.17a2,2,0,0,0,.49,1.5,1.83,1.83,0,0,0,1.38.49A2.79,2.79,0,0,0,35.35,21.66Z"/><path class="cls-4" d="M44.08,23.65a4.89,4.89,0,0,1-1.78-2.33,10.72,10.72,0,0,1-.67-4.12q0-3.88,1.72-5.8c1.15-1.28,2.9-1.91,5.26-1.91a9.72,9.72,0,0,1,1,.06V2.76h3.19V24.11h-2.7l-.23-1.5h-.17a3.54,3.54,0,0,1-1.26,1.29,3.59,3.59,0,0,1-1.89.48A4.52,4.52,0,0,1,44.08,23.65Zm4.66-2.29a2.25,2.25,0,0,0,.9-.8V12.1a9,9,0,0,0-1.28-.1,3.59,3.59,0,0,0-1.92.46A2.93,2.93,0,0,0,45.3,14a8.72,8.72,0,0,0-.39,2.89,10.11,10.11,0,0,0,.33,2.91,2.66,2.66,0,0,0,.91,1.45,2.49,2.49,0,0,0,1.41.4A2.44,2.44,0,0,0,48.74,21.36Z"/><path class="cls-5" d="M56.57,22.57q-1.49-1.8-1.49-5.61,0-7.48,5.78-7.49a5.18,5.18,0,0,1,4.27,1.84q1.5,1.83,1.5,5.63,0,7.44-5.77,7.44A5.25,5.25,0,0,1,56.57,22.57Zm5.65-1.06A2.73,2.73,0,0,0,63.05,20a12.32,12.32,0,0,0,.29-3,13,13,0,0,0-.29-3.09,2.86,2.86,0,0,0-.83-1.55,2.4,2.4,0,0,0-2.74,0,2.76,2.76,0,0,0-.83,1.52,12.16,12.16,0,0,0-.29,3A12.31,12.31,0,0,0,58.65,20a2.82,2.82,0,0,0,.82,1.52,2.44,2.44,0,0,0,2.75,0Z"/><path class="cls-6" d="M68.86,9.7h2.71l.23,1.54H72A3.59,3.59,0,0,1,73.22,10a3.64,3.64,0,0,1,1.89-.48,4.47,4.47,0,0,1,2.51.73,4.87,4.87,0,0,1,1.78,2.34,10.76,10.76,0,0,1,.67,4.12q0,3.87-1.73,5.79a6.7,6.7,0,0,1-5.25,1.91c-.25,0-.59,0-1-.05v5.62h-3.2Zm6.4,11.68a2.87,2.87,0,0,0,1.14-1.54A8.72,8.72,0,0,0,76.79,17,10.11,10.11,0,0,0,76.46,14a2.62,2.62,0,0,0-.91-1.45,2.51,2.51,0,0,0-1.43-.4,2.59,2.59,0,0,0-1.17.29,2.4,2.4,0,0,0-.89.81v8.46a7.15,7.15,0,0,0,1.28.1A3.5,3.5,0,0,0,75.26,21.38Z"/><path class="cls-7" d="M89.54,21.44v2.67a9,9,0,0,1-2.16.25,4.59,4.59,0,0,1-3.44-1.19,5.27,5.27,0,0,1-1.18-3.8V12.25h-2.2V9.7h2.2l.57-5.14H86V9.7h3.46v2.55H86V19a4.25,4.25,0,0,0,.23,1.55,1.47,1.47,0,0,0,.7.82,2.86,2.86,0,0,0,1.28.24A7.86,7.86,0,0,0,89.54,21.44Z"/><path class="cls-8" d="M102.64,24.11l-1.56-5.64H94.62l-1.55,5.64H89.89l5.6-19.55h4.77l5.6,19.55Zm-7.26-8.43h4.93L97.84,6.76Z"/><path class="cls-9" d="M107.38,9.7h2.71l.23,1.54h.17A3.59,3.59,0,0,1,111.74,10a3.64,3.64,0,0,1,1.89-.48,4.47,4.47,0,0,1,2.51.73,4.87,4.87,0,0,1,1.78,2.34,10.76,10.76,0,0,1,.67,4.12q0,3.87-1.73,5.79a6.7,6.7,0,0,1-5.25,1.91c-.25,0-.59,0-1-.05v5.62h-3.2Zm6.4,11.68a2.87,2.87,0,0,0,1.14-1.54,8.72,8.72,0,0,0,.39-2.89A10.11,10.11,0,0,0,115,14a2.62,2.62,0,0,0-.91-1.45,2.51,2.51,0,0,0-1.43-.4,2.59,2.59,0,0,0-1.17.29,2.4,2.4,0,0,0-.89.81v8.46a7.15,7.15,0,0,0,1.28.1A3.5,3.5,0,0,0,113.78,21.38Z"/><path class="cls-10" d="M131.17,17.93h-7.55a6.17,6.17,0,0,0,.44,2.3,2.32,2.32,0,0,0,1.18,1.19,5.15,5.15,0,0,0,2.11.35,11.54,11.54,0,0,0,3.14-.5v2.61a15.76,15.76,0,0,1-1.8.38,12.11,12.11,0,0,1-1.72.12,8.11,8.11,0,0,1-3.75-.76,4.72,4.72,0,0,1-2.15-2.41,11.39,11.39,0,0,1-.7-4.35,8.81,8.81,0,0,1,1.46-5.54A5,5,0,0,1,126,9.47q5.21,0,5.21,7.48ZM124.71,12a2.42,2.42,0,0,0-.78,1.29,8.91,8.91,0,0,0-.31,2.55h4.54a10.35,10.35,0,0,0-.28-2.55,2.46,2.46,0,0,0-.74-1.29,1.88,1.88,0,0,0-1.19-.37A2,2,0,0,0,124.71,12Z"/><path class="cls-11" d="M140.68,21.44v2.67a9,9,0,0,1-2.16.25,4.59,4.59,0,0,1-3.44-1.19,5.27,5.27,0,0,1-1.18-3.8V12.25h-2.2V9.7h2.2l.57-5.14h2.63V9.7h3.46v2.55H137.1V19a4.25,4.25,0,0,0,.23,1.55,1.47,1.47,0,0,0,.7.82,2.83,2.83,0,0,0,1.28.24A7.86,7.86,0,0,0,140.68,21.44Z"/></svg>