<svg xmlns="http://www.w3.org/2000/svg" viewBox="0 0 140 35.53"><defs><style>.cls-1{fill:#fff;}</style></defs><title>logo-white</title><g id="Layer_2" data-name="Layer 2"><g id="Layer_1-2" data-name="Layer 1"><path class="cls-1" d="M13.12,0A13.14,13.14,0,0,0,0,13.12a15.33,15.33,0,0,0,1.11,5.06A21.37,21.37,0,0,0,2.63,21l9,13.64a1.71,1.71,0,0,0,3,0l9-13.64a21.37,21.37,0,0,0,1.52-2.83,15.33,15.33,0,0,0,1.11-5.06A13.14,13.14,0,0,0,13.12,0ZM23.71,17.58a19.35,19.35,0,0,1-1.38,2.58l-9,13.64c-.18.27-.23.27-.41,0l-9-13.64a18.27,18.27,0,0,1-1.38-2.58,13.47,13.47,0,0,1-1-4.46,11.58,11.58,0,0,1,23.16,0A13.78,13.78,0,0,1,23.71,17.58Z"/><path class="cls-1" d="M17.32,16.54a3.92,3.92,0,0,1,.86,1.93c0,1-.75,1.51-1.76,1.51A2.56,2.56,0,0,1,15,19.6a2.22,2.22,0,0,0-1.58-.39,2.3,2.3,0,0,0-1.59.39,2.53,2.53,0,0,1-1.46.38c-1,0-1.76-.49-1.76-1.51a3.92,3.92,0,0,1,.86-1.93,15.45,15.45,0,0,1,2.08-2.72,2.84,2.84,0,0,1,1.71-.63h.32a2.76,2.76,0,0,1,1.71.63A18,18,0,0,1,17.32,16.54ZM10.89,12c1.06,0,1.92-1.34,1.92-3S12,6,10.89,6,9,7.31,9,9,9.83,12,10.89,12Zm-1.84,2.9c.78-.36,1-1.64.4-2.86S7.79,10.08,7,10.45s-1,1.64-.4,2.86S8.27,15.22,9.05,14.86ZM15.36,12c1.06,0,1.92-1.34,1.92-3s-.86-3-1.92-3-1.92,1.34-1.92,3S14.3,12,15.36,12Zm3.88-1.51c-.79-.37-1.88.33-2.44,1.55s-.38,2.5.4,2.86,1.87-.34,2.43-1.55S20,10.81,19.24,10.45Z"/><path class="cls-1" d="M36.44,8.64a3.53,3.53,0,0,1,1.77,1.72,7.42,7.42,0,0,1,.58,3.22v9.18H36.18l-.24-1.54h-.16a3.36,3.36,0,0,1-1.39,1.36,4.72,4.72,0,0,1-4,0A3.46,3.46,0,0,1,29,21.12,4.47,4.47,0,0,1,28.46,19a4.07,4.07,0,0,1,1.23-3.17,6.4,6.4,0,0,1,3.88-1.31l2.12-.2v-.85a3.58,3.58,0,0,0-.3-1.61,1.67,1.67,0,0,0-.93-.84,4.63,4.63,0,0,0-1.69-.25,11.07,11.07,0,0,0-1.66.13,11.85,11.85,0,0,0-1.71.41V8.66a12.83,12.83,0,0,1,1.91-.39,14.86,14.86,0,0,1,2-.15A7.89,7.89,0,0,1,36.44,8.64ZM34.66,20.31a2.73,2.73,0,0,0,1-.93V16.25l-1.79.17c-1.53.13-2.3.86-2.3,2.17a2.08,2.08,0,0,0,.49,1.5,1.87,1.87,0,0,0,1.39.49A2.72,2.72,0,0,0,34.66,20.31Z"/><path class="cls-1" d="M43.4,22.3A4.91,4.91,0,0,1,41.61,20,10.93,10.93,0,0,1,41,15.85q0-3.88,1.72-5.8a6.7,6.7,0,0,1,5.25-1.91,9.58,9.58,0,0,1,1,.06V1.41h3.2V22.76H49.44l-.22-1.5h-.17a3.54,3.54,0,0,1-1.26,1.29A3.64,3.64,0,0,1,45.9,23,4.44,4.44,0,0,1,43.4,22.3ZM48.06,20a2.32,2.32,0,0,0,.89-.81V10.75a8.74,8.74,0,0,0-1.28-.1,3.49,3.49,0,0,0-1.91.47,2.83,2.83,0,0,0-1.15,1.54,8.72,8.72,0,0,0-.39,2.89,10.11,10.11,0,0,0,.33,2.91,2.63,2.63,0,0,0,.92,1.45,2.44,2.44,0,0,0,1.41.4A2.57,2.57,0,0,0,48.06,20Z"/><path class="cls-1" d="M55.89,21.22q-1.48-1.8-1.49-5.61,0-7.48,5.77-7.49A5.23,5.23,0,0,1,64.45,10Q66,11.79,66,15.59,66,23,60.17,23A5.23,5.23,0,0,1,55.89,21.22Zm5.65-1.06a2.79,2.79,0,0,0,.83-1.51,12.32,12.32,0,0,0,.29-3,13,13,0,0,0-.29-3.09A2.93,2.93,0,0,0,61.53,11a2.09,2.09,0,0,0-1.36-.43A2.12,2.12,0,0,0,58.8,11,2.76,2.76,0,0,0,58,12.52a12.08,12.08,0,0,0-.3,3,12.18,12.18,0,0,0,.3,3.07,2.76,2.76,0,0,0,.82,1.52,2.13,2.13,0,0,0,1.38.43A2.15,2.15,0,0,0,61.54,20.16Z"/><path class="cls-1" d="M68.18,8.35h2.71l.22,1.54h.17A3.54,3.54,0,0,1,72.54,8.6a3.64,3.64,0,0,1,1.89-.48,4.42,4.42,0,0,1,2.5.73,4.89,4.89,0,0,1,1.79,2.34,11,11,0,0,1,.66,4.12q0,3.87-1.72,5.79A6.7,6.7,0,0,1,72.41,23c-.25,0-.59,0-1-.05v5.62h-3.2ZM74.58,20a2.93,2.93,0,0,0,1.14-1.55,8.72,8.72,0,0,0,.39-2.89,10.11,10.11,0,0,0-.33-2.91,2.71,2.71,0,0,0-.91-1.45,2.53,2.53,0,0,0-1.43-.4,2.43,2.43,0,0,0-1.17.3,2.23,2.23,0,0,0-.89.8V20.4a7.08,7.08,0,0,0,1.28.1A3.64,3.64,0,0,0,74.58,20Z"/><path class="cls-1" d="M88.86,20.09v2.67a9.14,9.14,0,0,1-2.17.25,4.59,4.59,0,0,1-3.43-1.19A5.23,5.23,0,0,1,82.08,18V10.9H79.87V8.35h2.21l.57-5.14h2.63V8.35h3.46V10.9H85.28v6.74a4.28,4.28,0,0,0,.22,1.55,1.51,1.51,0,0,0,.7.82,2.91,2.91,0,0,0,1.29.24A8,8,0,0,0,88.86,20.09Z"/><path class="cls-1" d="M102,22.76l-1.56-5.64H93.94l-1.55,5.64H89.2L94.81,3.21h4.77l5.6,19.55ZM94.7,14.33h4.93L97.16,5.41Z"/><path class="cls-1" d="M106.7,8.35h2.71l.22,1.54h.17a3.54,3.54,0,0,1,1.26-1.29A3.64,3.64,0,0,1,113,8.12a4.42,4.42,0,0,1,2.5.73,4.89,4.89,0,0,1,1.79,2.34,11,11,0,0,1,.66,4.12q0,3.87-1.72,5.79A6.7,6.7,0,0,1,110.93,23c-.25,0-.59,0-1-.05v5.62h-3.2ZM113.1,20a2.93,2.93,0,0,0,1.14-1.55,8.72,8.72,0,0,0,.39-2.89,10.11,10.11,0,0,0-.33-2.91,2.71,2.71,0,0,0-.91-1.45,2.53,2.53,0,0,0-1.43-.4,2.43,2.43,0,0,0-1.17.3,2.23,2.23,0,0,0-.89.8V20.4a7.08,7.08,0,0,0,1.28.1A3.64,3.64,0,0,0,113.1,20Z"/><path class="cls-1" d="M130.49,16.58h-7.55a6,6,0,0,0,.44,2.3,2.3,2.3,0,0,0,1.17,1.19,5.19,5.19,0,0,0,2.12.36,11.65,11.65,0,0,0,3.14-.51v2.61a15.76,15.76,0,0,1-1.8.38,12.26,12.26,0,0,1-1.73.12,8,8,0,0,1-3.74-.76,4.68,4.68,0,0,1-2.15-2.41,11.17,11.17,0,0,1-.7-4.35A8.81,8.81,0,0,1,121.15,10a5,5,0,0,1,4.13-1.85q5.21,0,5.21,7.48ZM124,10.69a2.49,2.49,0,0,0-.79,1.29,9.34,9.34,0,0,0-.3,2.55h4.53a9.89,9.89,0,0,0-.28-2.55,2.33,2.33,0,0,0-.74-1.29,1.83,1.83,0,0,0-1.18-.37A2,2,0,0,0,124,10.69Z"/><path class="cls-1" d="M140,20.09v2.67a9.14,9.14,0,0,1-2.17.25,4.59,4.59,0,0,1-3.43-1.19,5.23,5.23,0,0,1-1.18-3.8V10.9H131V8.35h2.21l.57-5.14h2.63V8.35h3.46V10.9h-3.46v6.74a4.28,4.28,0,0,0,.22,1.55,1.51,1.51,0,0,0,.7.82,2.89,2.89,0,0,0,1.28.24A8,8,0,0,0,140,20.09Z"/></g></g></svg>